<svg width="1440" height="160" viewBox="0 0 1440 160" fill="none" xmlns="http://www.w3.org/2000/svg">
    <g clip-path="url(#clip0_7_704)">
    <path d="M1707 27.7259C1592.02 -34.6574 1487.3 27.7259 1487.3 27.7259C1375.98 88.1231 1259.73 27.7259 1259.73 27.7259H1260.42C1145.45 -34.6574 1040.72 27.7259 1040.72 27.7259C929.409 88.1231 813.152 27.7259 813.152 27.7259H813.848C698.873 -34.6574 594.147 27.7259 594.147 27.7259C482.832 88.1231 366.576 27.7259 366.576 27.7259H367.272C252.297 -34.6574 147.571 27.7259 147.571 27.7259C36.2562 88.1231 -80 27.7259 -80 27.7259V160.02H1707V27.7259Z" fill="#00AADD"/>
    </g>
    <defs>
    <clipPath id="clip0_7_704">
    <rect width="1787" height="160" fill="white" transform="translate(-80)"/>
    </clipPath>
    </defs>
</svg>
